# xmcd
#
# Track frame offsets: 
#        150
#        22652
#        47660
#        63830
#        87950
#        100158
#        113748
#        129553
#        152923
#        175768
#        214329
#
# Disc length: 3266 seconds
#
# Revision: 2
# Processed by: cddbd v1.5.2PL0 Copyright (c) Steve Scherf et al.
# Submitted via: ExactAudioCopy v1.0b3
#
DISCID=870cc00b
DTITLE=Popa Chubby - The Hungry Years
DYEAR=2003
DGENRE=Blues
TTITLE0=Stoop Down Baby
TTITLE1=Shake Down
TTITLE2=Looking For One Kiss
TTITLE3=Take Off A!
TTITLE4=Working Class Blues
TTITLE5=Lo Han Sway
TTITLE6=Feel My Eyes On You
TTITLE7=Rain On My Mind
TTITLE8=It's Chubby Time
TTITLE9=San Catri
TTITLE10=What's Your Problem? Pipeline
EXTD=YEAR: 2003
EXTT0=
EXTT1=
EXTT2=
EXTT3=
EXTT4=
EXTT5=
EXTT6=
EXTT7=
EXTT8=
EXTT9=
EXTT10=
PLAYORDER=
